<svg width="228" height="62" xmlns="http://www.w3.org/2000/svg" xmlns:xlink="http://www.w3.org/1999/xlink" overflow="hidden"><defs><clipPath id="clip0"><rect x="796" y="143" width="228" height="62"/></clipPath><clipPath id="clip1"><rect x="804" y="148" width="45" height="51"/></clipPath><clipPath id="clip2"><rect x="804" y="148" width="45" height="51"/></clipPath><clipPath id="clip3"><rect x="804" y="148" width="45" height="51"/></clipPath></defs><g clip-path="url(#clip0)" transform="translate(-796 -143)"><rect x="796" y="143" width="227" height="61" fill="#C3A9E9"/><text fill="#390091" font-family="TT Norms,TT Norms_MSFontService,sans-serif" font-weight="800" font-size="24" transform="translate(858.861 182)">C#</text><g clip-path="url(#clip1)"><g clip-path="url(#clip2)"><g clip-path="url(#clip3)"><path d="M44.9242 14.8451C44.9239 13.9961 44.7423 13.2459 44.3751 12.602 44.0144 11.9688 43.4742 11.4382 42.7496 11.0186 36.7687 7.56991 30.7819 4.13181 24.8029 0.679637 23.191-0.250949 21.6281-0.217023 20.0282 0.726922 17.6476 2.13089 5.72871 8.95947 2.17705 11.0166 0.714375 11.8634 0.00263672 13.1592 0.00228516 14.8436 0 21.7789 0.00228516 28.7142 0 35.6498 0 36.4802 0.174199 37.2159 0.525234 37.8501 0.886113 38.5024 1.43385 39.0477 2.17512 39.4768 5.72695 41.5339 17.6474 48.362 20.0275 49.7663 21.6281 50.7108 23.191 50.7445 24.8034 49.8136 30.7826 46.3612 36.7697 42.9233 42.7516 39.4747 43.4929 39.0458 44.0406 38.5001 44.4015 37.8483 44.752 37.2141 44.9265 36.4785 44.9265 35.6479 44.9265 35.6479 44.9265 21.7807 44.9242 14.8451" fill="#A179DC" transform="matrix(1 0 0 1.00741 804 148)"/><path d="M22.532 25.1791 0.525234 37.8501C0.886113 38.5024 1.43385 39.0477 2.17512 39.4768 5.72695 41.5339 17.6474 48.362 20.0275 49.7663 21.6281 50.7108 23.191 50.7445 24.8034 49.8136 30.7826 46.3612 36.7697 42.9233 42.7516 39.4747 43.4929 39.0458 44.0406 38.5001 44.4015 37.8483L22.532 25.1791" fill="#280068" transform="matrix(1 0 0 1.00741 804 148)"/><path d="M44.9242 14.8451C44.9239 13.9961 44.7423 13.2459 44.3751 12.602L22.532 25.1791 44.4015 37.8483C44.752 37.2141 44.9262 36.4785 44.9265 35.6479 44.9265 35.6479 44.9265 21.7807 44.9242 14.8451" fill="#390091" transform="matrix(1 0 0 1.00741 804 148)"/><path d="M35.4888 20.4423 35.4888 22.8108 37.8573 22.8108 37.8573 20.4423 39.0415 20.4423 39.0415 22.8108 41.41 22.8108 41.41 23.995 39.0415 23.995 39.0415 26.3633 41.41 26.3633 41.41 27.5476 39.0415 27.5476 39.0415 29.916 37.8573 29.916 37.8573 27.5476 35.4888 27.5476 35.4888 29.916 34.3046 29.916 34.3046 27.5476 31.9363 27.5476 31.9363 26.3633 34.3046 26.3633 34.3046 23.995 31.9363 23.995 31.9363 22.8108 34.3046 22.8108 34.3046 20.4423 35.4888 20.4423ZM37.8573 23.995 35.4888 23.995 35.4888 26.3633 37.8573 26.3633 37.8573 23.995Z" fill="#FFFFFF" transform="matrix(1 0 0 1.00741 804 148)"/><path d="M22.5803 8.54752C28.758 8.54752 34.1515 11.9025 37.0404 16.8894L37.0121 16.8414 29.7439 21.0264C28.3119 18.6019 25.6866 16.9655 22.6751 16.9318L22.5803 16.9313C17.9879 16.9313 14.2648 20.6543 14.2648 25.2466 14.2648 26.7485 14.6651 28.1563 15.3615 29.3722 16.7948 31.8744 19.4894 33.5621 22.5803 33.5621 25.6904 33.5621 28.4003 31.853 29.8262 29.324L29.7916 29.3846 37.0491 33.589C34.1917 38.5335 28.8721 41.8783 22.7663 41.9449L22.5803 41.946C16.3832 41.946 10.9743 38.5703 8.09265 33.557 6.68587 31.1096 5.88097 28.2723 5.88097 25.2466 5.88097 16.0241 13.3574 8.54752 22.5803 8.54752Z" fill="#FFFFFF" transform="matrix(1 0 0 1.00741 804 148)"/></g></g></g></g></svg>