<svg width="228" height="62" xmlns="http://www.w3.org/2000/svg" xmlns:xlink="http://www.w3.org/1999/xlink" overflow="hidden"><defs><clipPath id="clip0"><rect x="796" y="274" width="228" height="62"/></clipPath><clipPath id="clip1"><rect x="810" y="282" width="33" height="45"/></clipPath><clipPath id="clip2"><rect x="810" y="282" width="33" height="45"/></clipPath><clipPath id="clip3"><rect x="810" y="282" width="33" height="45"/></clipPath></defs><g clip-path="url(#clip0)" transform="translate(-796 -274)"><rect x="796" y="274" width="227" height="61" fill="#FFBF85"/><text fill="#C45D00" font-family="TT Norms,TT Norms_MSFontService,sans-serif" font-weight="800" font-size="24" transform="translate(857.62 313)">JAVA</text><g clip-path="url(#clip1)"><g clip-path="url(#clip2)"><g clip-path="url(#clip3)"><path d="M10.6417 34.4789C10.6417 34.4789 8.94036 35.4683 11.8525 35.8031 15.3806 36.2055 17.1836 36.1479 21.0715 35.412 21.0715 35.412 22.0936 36.0529 23.5211 36.6081 14.8057 40.3434 3.79608 36.3917 10.6417 34.4789" fill="#5382A1" transform="matrix(1 0 0 1.00893 810 282)"/><path d="M9.57672 29.6045C9.57672 29.6045 7.66848 31.017 10.5828 31.3184 14.3515 31.7072 17.3277 31.739 22.4778 30.7474 22.4778 30.7474 23.1901 31.4695 24.3102 31.8645 13.7725 34.9458 2.03544 32.1075 9.57672 29.6045" fill="#5382A1" transform="matrix(1 0 0 1.00893 810 282)"/><path d="M18.555 21.3359C20.7025 23.8083 17.9908 26.0333 17.9908 26.0333 17.9908 26.0333 23.4437 23.2183 20.9394 19.6933 18.6005 16.406 16.8068 14.7727 26.5169 9.14124 26.5169 9.14124 11.2753 12.9479 18.555 21.3359" fill="#E76F00" transform="matrix(1 0 0 1.00893 810 282)"/><path d="M30.0821 38.0843C30.0821 38.0843 31.3411 39.1216 28.6954 39.9242 23.6647 41.4483 7.75692 41.9085 3.3378 39.9849 1.74924 39.2938 4.72824 38.3348 5.66533 38.1336 6.6426 37.9216 7.20108 37.9612 7.20108 37.9612 5.43444 36.7166-4.21776 40.4049 2.29824 41.461 20.0684 44.3428 34.6914 40.1635 30.0821 38.0843" fill="#5382A1" transform="matrix(1 0 0 1.00893 810 282)"/><path d="M11.4599 24.5541C11.4599 24.5541 3.36817 26.4759 8.5944 27.1738 10.8011 27.4693 15.2 27.4025 19.2975 27.0591 22.6462 26.7767 26.0088 26.1761 26.0088 26.1761 26.0088 26.1761 24.828 26.6818 23.9737 27.2651 15.7567 29.4262-0.117 28.4209 4.45283 26.2103 8.31756 24.3421 11.4599 24.5541 11.4599 24.5541" fill="#5382A1" transform="matrix(1 0 0 1.00893 810 282)"/><path d="M25.9754 32.6677C34.3284 28.3271 30.4663 24.156 27.7707 24.7179 27.1099 24.8554 26.8153 24.9747 26.8153 24.9747 26.8153 24.9747 27.0606 24.5904 27.5291 24.4241 32.8619 22.5492 36.9634 29.9538 25.8075 32.8864 25.8075 32.8866 25.9368 32.7711 25.9754 32.6677" fill="#5382A1" transform="matrix(1 0 0 1.00893 810 282)"/><path d="M20.9394 0.04788C20.9394 0.04788 25.5655 4.67544 16.5518 11.7913 9.32388 17.4995 14.9036 20.7542 16.5489 24.4727 12.3298 20.666 9.23352 17.3151 11.3107 14.1962 14.3595 9.61812 22.8058 7.39848 20.9394 0.04788" fill="#E76F00" transform="matrix(1 0 0 1.00893 810 282)"/><path d="M12.2807 44.4295C20.2985 44.9428 32.6107 44.1447 32.9023 40.351 32.9023 40.351 32.3418 41.7892 26.276 42.9313 19.4326 44.2191 10.9924 44.0688 5.98632 43.2434 5.98644 43.2433 7.01112 44.0916 12.2807 44.4295" fill="#5382A1" transform="matrix(1 0 0 1.00893 810 282)"/></g></g></g></g></svg>