<svg width="228" height="62" xmlns="http://www.w3.org/2000/svg" xmlns:xlink="http://www.w3.org/1999/xlink" overflow="hidden"><defs><clipPath id="clip0"><rect x="796" y="402" width="228" height="62"/></clipPath><clipPath id="clip1"><rect x="804" y="424" width="45" height="19"/></clipPath><clipPath id="clip2"><rect x="804" y="424" width="45" height="19"/></clipPath><clipPath id="clip3"><rect x="804" y="424" width="45" height="19"/></clipPath></defs><g clip-path="url(#clip0)" transform="translate(-796 -402)"><rect x="796" y="403" width="227" height="61" fill="#D9D9D9"/><text font-family="TT Norms,TT Norms_MSFontService,sans-serif" font-weight="800" font-size="24" transform="translate(858.861 442)">LATEX</text><g clip-path="url(#clip1)"><g clip-path="url(#clip2)"><g clip-path="url(#clip3)"><path d="M9.21375 7.13812 8.79187 7.13812C8.62313 8.85938 8.38687 10.9519 5.41687 10.9519L4.05 10.9519C3.25687 10.9519 3.22312 10.8337 3.22312 10.2769L3.22312 1.31625C3.22312 0.7425 3.22312 0.50625 4.80937 0.50625L5.36625 0.50625 5.36625 4.68376e-16C4.75875 0.050625 3.24 0.050625 2.54813 0.050625 1.89 0.050625 0.57375 0.050625 -3.74701e-16 4.68376e-16L-3.74701e-16 0.50625 0.388125 0.50625C1.6875 0.50625 1.72125 0.691875 1.72125 1.29937L1.72125 10.1587C1.72125 10.7663 1.6875 10.9519 0.388125 10.9519L-4.21537e-16 10.9519 -4.21537e-16 11.475 8.75813 11.475Z" transform="matrix(1 0 0 1.01333 805.5 425.811)"/><path d="M4.74187 0.27C4.67438 0.0675 4.64062 0 4.42125 0 4.20188 0 4.15125 0.0675 4.08375 0.27L1.36688 7.155C1.24875 7.44187 1.04625 7.965 -3.74701e-16 7.965L-3.74701e-16 8.38687 2.61562 8.38687 2.61562 7.965C2.0925 7.965 1.77187 7.72875 1.77187 7.39125 1.77187 7.30687 1.78875 7.27312 1.8225 7.155 1.8225 7.155 2.39625 5.70375 2.39625 5.70375L5.7375 5.70375 6.4125 7.425C6.44625 7.4925 6.48 7.57687 6.48 7.6275 6.48 7.965 5.83875 7.965 5.51813 7.965L5.51813 8.38687 8.8425 8.38687 8.8425 7.965 8.60625 7.965C7.81313 7.965 7.72875 7.84688 7.61063 7.50937 7.61063 7.50937 4.74187 0.27 4.74187 0.27ZM4.06687 1.46812 5.56875 5.28188 2.565 5.28188Z" transform="matrix(1 0 0 1.01333 809.685 425.52)"/><path d="M10.5806 0 0.30375 0C0.30375 0 -4.68376e-16 3.78 -4.68376e-16 3.78L0.405 3.78C0.64125 1.06313 0.894375 0.50625 3.4425 0.50625 3.74625 0.50625 4.185 0.50625 4.35375 0.54 4.70813 0.6075 4.70813 0.793125 4.70813 1.18125L4.70813 10.0406C4.70813 10.6144 4.70813 10.8506 2.93625 10.8506L2.26125 10.8506 2.26125 11.3737C2.95312 11.3231 4.6575 11.3231 5.43375 11.3231 6.21 11.3231 7.94812 11.3231 8.64 11.3737L8.64 10.8506 7.965 10.8506C6.19313 10.8506 6.19313 10.6144 6.19313 10.0406L6.19313 1.18125C6.19313 0.84375 6.19313 0.6075 6.49687 0.54 6.6825 0.50625 7.13812 0.50625 7.45875 0.50625 9.99 0.50625 10.2431 1.06313 10.4794 3.78L10.9012 3.78C10.9012 3.78 10.5806-1.4988e-15 10.5806-1.4988e-15Z" transform="matrix(1 0 0 1.01333 817.363 425.913)"/><path d="M10.395 7.0875 9.97312 7.0875C9.55125 9.66938 9.16313 10.9012 6.2775 10.9012L4.05 10.9012C3.25687 10.9012 3.22312 10.7831 3.22312 10.2262L3.22312 5.7375 4.725 5.7375C6.36188 5.7375 6.5475 6.2775 6.5475 7.71188L6.96938 7.71188 6.96938 3.25687 6.5475 3.25687C6.5475 4.69125 6.36188 5.21438 4.725 5.21438L3.22312 5.21438 3.22312 1.18125C3.22312 0.624375 3.25687 0.50625 4.05 0.50625L6.21 0.50625C8.79187 0.50625 9.23062 1.43438 9.50063 3.78L9.9225 3.78 9.45-2.24821e-15 1.4988e-15-2.24821e-15 1.4988e-15 0.50625 0.388125 0.50625C1.6875 0.50625 1.72125 0.691875 1.72125 1.29937L1.72125 10.1081C1.72125 10.7156 1.6875 10.9012 0.388125 10.9012L1.45196e-15 10.9012 1.45196e-15 11.4244 9.68625 11.4244Z" transform="matrix(1 0 0 1.01333 826.594 429.71)"/><path d="M6.345 4.97813 8.65688 1.60312C9.01125 1.06313 9.585 0.523125 11.0869 0.50625L11.0869 2.81024e-16 7.07063 2.81024e-16 7.07063 0.50625C7.74563 0.523125 8.11687 0.894375 8.11687 1.2825 8.11687 1.45125 8.08313 1.485 7.965 1.67062 7.965 1.67062 6.04125 4.50563 6.04125 4.50563L3.88125 1.26562C3.8475 1.215 3.76312 1.08 3.76312 1.0125 3.76312 0.81 4.13438 0.523125 4.84312 0.50625L4.84312 0C4.26937 0.050625 3.0375 0.050625 2.39625 0.050625 1.87313 0.050625 0.826875 0.03375 0.2025 0L0.2025 0.50625 0.523125 0.50625C1.45125 0.50625 1.77187 0.624375 2.0925 1.09687 2.0925 1.09687 5.18062 5.77125 5.18062 5.77125L2.43 9.83813C2.19375 10.1756 1.6875 10.9519 2.24821e-15 10.9519L2.24821e-15 11.475 4.01625 11.475 4.01625 10.9519C3.24 10.935 2.95312 10.4794 2.95312 10.1756 2.95312 10.0238 3.00375 9.95625 3.12188 9.77063L5.50125 6.24375 8.1675 10.26C8.20125 10.3275 8.25187 10.395 8.25187 10.4456 8.25187 10.6481 7.88063 10.935 7.155 10.9519L7.155 11.475C7.74563 11.4244 8.9775 11.4244 9.60188 11.4244 10.3106 11.4244 11.0869 11.4413 11.7956 11.475L11.7956 10.9519 11.475 10.9519C10.5975 10.9519 10.2431 10.8675 9.88875 10.3444 9.88875 10.3444 6.345 4.97813 6.345 4.97813Z" transform="matrix(1 0 0 1.01333 835.723 425.811)"/></g></g></g></g></svg>