<svg width="228" height="62" xmlns="http://www.w3.org/2000/svg" xmlns:xlink="http://www.w3.org/1999/xlink" overflow="hidden"><defs><clipPath id="clip0"><rect x="796" y="338" width="228" height="62"/></clipPath><clipPath id="clip1"><rect x="805" y="346" width="44" height="46"/></clipPath><clipPath id="clip2"><rect x="805" y="346" width="44" height="46"/></clipPath><clipPath id="clip3"><rect x="805" y="346" width="44" height="46"/></clipPath></defs><g clip-path="url(#clip0)" transform="translate(-796 -338)"><rect x="796" y="339" width="227" height="60" fill="#86B1D4"/><text fill="#274E6F" font-family="TT Norms,TT Norms_MSFontService,sans-serif" font-weight="800" font-size="24" transform="translate(857.62 377)">POSTGRE</text><g clip-path="url(#clip1)"><g clip-path="url(#clip2)"><g clip-path="url(#clip3)"><path d="M32.9136 33.0177C33.2021 30.6143 33.1157 30.2618 34.9058 30.6511L35.3603 30.6911C36.7368 30.7537 38.5375 30.4697 39.5953 29.9782 41.8726 28.9216 43.2229 27.1574 40.9774 27.6209 35.8554 28.6776 35.5033 26.9432 35.5033 26.9432 40.9118 18.9183 43.1728 8.73144 41.2212 6.23791 35.8983-0.563556 26.6845 2.6527 26.5303 2.73621L26.4812 2.74527C25.4692 2.53529 24.3366 2.40983 23.0642 2.38926 20.7464 2.35117 18.9876 2.99691 17.6534 4.00884 17.6534 4.00884 1.21642-2.76299 1.9811 12.5251 2.14373 15.7773 6.64281 37.1341 12.0088 30.6833 13.97 28.3245 15.8654 26.3301 15.8654 26.3301 16.8066 26.9553 17.9334 27.2743 19.1152 27.1597L19.2065 27.0818C19.1779 27.3747 19.1905 27.6612 19.2431 28.0003 17.861 29.5448 18.2671 29.816 15.5034 30.3848 12.7073 30.9611 14.35 31.9871 15.4222 32.2553 16.7224 32.5804 19.7304 33.041 21.7633 30.1957L21.6823 30.5204C22.2246 30.9542 22.1879 33.6385 22.2648 35.5563 22.3418 37.4743 22.4702 39.2641 22.8612 40.3193 23.2521 41.3743 23.7134 44.0923 27.3456 43.3138 30.3812 42.6633 32.7021 41.727 32.9136 33.0176" stroke="#000000" stroke-width="3.80815" transform="matrix(1 0 0 1.01377 805 346.01)"/><path d="M40.9779 27.6207C35.8554 28.6774 35.5033 26.943 35.5033 26.943 40.9118 18.9176 43.1728 8.73053 41.2216 6.2373 35.8987-0.563759 26.6845 2.6527 26.5307 2.73621L26.4812 2.74507C25.4692 2.53498 24.3366 2.40983 23.0636 2.38905 20.7457 2.35107 18.9876 2.9967 17.6534 4.00843 17.6534 4.00843 1.21611-2.76309 1.98059 12.5249 2.14322 15.7773 6.6422 37.1341 12.0084 30.6833 13.9697 28.3245 15.8648 26.3301 15.8648 26.3301 16.8061 26.9553 17.9329 27.2743 19.1141 27.1597L19.2059 27.0818C19.1774 27.3747 19.1904 27.6612 19.2427 28.0003 17.8603 29.5448 18.2665 29.816 15.503 30.3848 12.7067 30.9611 14.3494 31.9871 15.4219 32.2553 16.7221 32.5804 19.7302 33.041 21.7628 30.1957L21.6817 30.5204C22.2234 30.9542 22.6037 33.3423 22.54 35.5072 22.4762 37.6721 22.4337 39.1584 22.8605 40.3193 23.2872 41.4802 23.7126 44.0923 27.3455 43.3138 30.3811 42.6633 31.9541 40.9775 32.173 38.1656 32.3283 36.1664 32.6797 36.462 32.7019 34.6747L32.9838 33.8285C33.3088 31.1186 33.0354 30.2443 34.9056 30.6509L35.3601 30.6909C36.7366 30.7535 38.5382 30.4695 39.5955 29.978 41.8724 28.9214 43.2227 27.1572 40.9777 27.6207Z" fill="#336791" transform="matrix(1 0 0 1.01377 805 346.01)"/><path d="M21.9827 29.1741C21.8417 34.2166 22.0182 39.2942 22.5116 40.5282 23.0053 41.7623 24.0618 44.1625 27.695 43.3842 30.7303 42.7335 31.8347 41.4742 32.3139 38.6946 32.6669 36.6495 33.3473 30.97 33.4346 29.8063" stroke="#FFFFFF" stroke-width="1.26939" stroke-linecap="round" stroke-linejoin="round" fill="none" transform="matrix(1 0 0 1.01377 805 346.01)"/><path d="M17.6281 3.8958C17.6281 3.8958 1.17956-2.82694 1.94424 12.4611 2.10687 15.7135 6.60615 37.0709 11.9722 30.6199 13.9332 28.2608 15.7066 26.4105 15.7066 26.4105" stroke="#FFFFFF" stroke-width="1.26939" stroke-linecap="round" stroke-linejoin="round" fill="none" transform="matrix(1 0 0 1.01377 805 346.01)"/><path d="M26.5127 2.66879C25.9433 2.84731 35.6623-0.884133 41.1858 6.17365 43.1368 8.66698 40.8759 18.8541 35.4674 26.8797" stroke="#FFFFFF" stroke-width="1.26939" stroke-linecap="round" stroke-linejoin="round" fill="none" transform="matrix(1 0 0 1.01377 805 346.01)"/><path d="M35.4673 26.8797C35.4673 26.8797 35.8198 28.6145 40.9424 27.5572 43.1868 27.0936 41.8361 28.858 39.5598 29.9152 37.6916 30.7822 33.5032 31.0044 33.4348 29.8063 33.2587 26.7151 35.6392 27.6542 35.4674 26.8797 35.3121 26.1821 34.2476 25.4975 33.5434 23.7902 32.9286 22.3001 25.1118 10.8725 35.7111 12.5697 36.0994 12.4894 32.9467 2.48783 23.0273 2.3252 13.1101 2.16257 13.4354 14.5212 13.4354 14.5212" stroke="#FFFFFF" stroke-width="1.26939" stroke-linecap="round" stroke-linejoin="bevel" fill="none" transform="matrix(1 0 0 1.01377 805 346.01)"/><path d="M19.2065 27.9368C17.8239 29.4813 18.2305 29.7525 15.4668 30.3215 12.6705 30.8979 14.3134 31.9237 15.3857 32.1917 16.6859 32.5171 19.694 32.9777 21.7265 30.1317 22.3455 29.2652 21.7229 27.8826 20.8726 27.5301 20.4618 27.3599 19.9125 27.1467 19.2065 27.9368Z" stroke="#FFFFFF" stroke-width="1.26939" stroke-linecap="round" stroke-linejoin="round" fill="none" transform="matrix(1 0 0 1.01377 805 346.01)"/><path d="M19.116 27.9098C18.9767 27.0018 19.4144 25.9212 19.8834 24.657 20.5883 22.7603 22.2147 20.8632 20.9137 14.8463 19.9439 10.3626 13.4394 13.9132 13.4353 14.5212 13.4313 15.1289 13.7295 17.6027 13.3267 20.4834 12.801 24.2425 15.7186 27.4216 19.0782 27.0964" stroke="#FFFFFF" stroke-width="1.26939" stroke-linecap="round" stroke-linejoin="round" fill="none" transform="matrix(1 0 0 1.01377 805 346.01)"/><path d="M17.5683 14.43C17.539 14.6377 17.9484 15.1918 18.4824 15.2658 19.0154 15.3401 19.4716 14.9071 19.5005 14.6997 19.5294 14.4921 19.1205 14.2633 18.5863 14.189 18.053 14.1146 17.5966 14.2229 17.5684 14.43Z" stroke="#FFFFFF" stroke-width="0.423125" fill="#FFFFFF" transform="matrix(1 0 0 1.01377 805 346.01)"/><path d="M33.8033 14.0067C33.8322 14.2143 33.4232 14.7684 32.8892 14.8425 32.3558 14.9168 31.8995 14.4838 31.8703 14.2764 31.8421 14.0687 32.2512 13.84 32.7847 13.7657 33.3182 13.6913 33.7743 13.7996 33.8033 14.0068Z" stroke="#FFFFFF" stroke-width="0.211562" fill="#FFFFFF" transform="matrix(1 0 0 1.01377 805 346.01)"/><path d="M35.7111 12.5697C35.799 14.1985 35.3603 15.3079 35.305 17.0417 35.2231 19.5619 36.5066 22.4465 34.5727 25.3346" stroke="#FFFFFF" stroke-width="1.26939" stroke-linecap="round" stroke-linejoin="round" fill="none" transform="matrix(1 0 0 1.01377 805 346.01)"/><path d="" stroke="#FFFFFF" stroke-width="0.305505" stroke-linecap="round" stroke-linejoin="round" fill="none" transform="matrix(1 0 0 1.01377 805 346.01)"/></g></g></g></g></svg>