<svg width="228" height="62" xmlns="http://www.w3.org/2000/svg" xmlns:xlink="http://www.w3.org/1999/xlink" overflow="hidden"><defs><clipPath id="clip0"><rect x="796" y="207" width="228" height="62"/></clipPath><clipPath id="clip1"><rect x="804" y="215" width="45" height="46"/></clipPath><clipPath id="clip2"><rect x="804" y="215" width="45" height="46"/></clipPath><clipPath id="clip3"><rect x="804" y="215" width="45" height="46"/></clipPath><linearGradient x1="22.7247" y1="31.5288" x2="45.061" y2="53.9399" gradientUnits="userSpaceOnUse" spreadMethod="pad" id="fill4"><stop offset="0" stop-color="#387EB8"/><stop offset="1" stop-color="#366994"/></linearGradient><linearGradient x1="36.465" y1="45.7859" x2="60.4542" y2="68.7686" gradientUnits="userSpaceOnUse" spreadMethod="pad" id="fill5"><stop offset="0" stop-color="#FFE052"/><stop offset="1" stop-color="#FFC331"/></linearGradient></defs><g clip-path="url(#clip0)" transform="translate(-796 -207)"><rect x="796" y="208" width="227" height="60" fill="#FFEDB3"/><text fill="#3774A7" font-family="TT Norms,TT Norms_MSFontService,sans-serif" font-weight="800" font-size="24" transform="translate(857.62 246)">PYTHON</text><g clip-path="url(#clip1)"><g clip-path="url(#clip2)"><g clip-path="url(#clip3)"><path d="M40.8068 27.6009C29.3393 27.6009 30.0554 32.5739 30.0554 32.5739L30.0682 37.7259 41.0114 37.7259 41.0114 39.2727 25.7216 39.2727C25.7216 39.2727 18.3835 38.4405 18.3835 50.0114 18.3835 61.5821 24.7884 61.1718 24.7884 61.1718L28.6108 61.1718 28.6108 55.8025C28.6108 55.8025 28.4047 49.3977 34.9134 49.3977 41.4221 49.3977 45.767 49.3977 45.767 49.3977 45.767 49.3977 51.865 49.4963 51.865 43.5044 51.865 37.5122 51.865 33.5966 51.865 33.5966 51.865 33.5966 52.7907 27.6009 40.8068 27.6009ZM34.7727 31.0653C35.8615 31.0653 36.7415 31.9453 36.7415 33.0341 36.7415 34.1228 35.8615 35.0028 34.7727 35.0028 33.684 35.0028 32.804 34.1228 32.804 33.0341 32.804 31.9453 33.684 31.0653 34.7727 31.0653Z" fill="url(#fill4)" transform="matrix(1 0 0 1.02222 785.616 186.786)"/><path d="M41.1325 72.538C52.6001 72.538 51.8838 67.565 51.8838 67.565L51.8711 62.413 40.9279 62.413 40.9279 60.8662 56.2177 60.8662C56.2177 60.8662 63.556 61.6983 63.556 50.1275 63.556 38.5565 57.1508 38.9668 57.1508 38.9668L53.3287 38.9668 53.3287 44.336C53.3287 44.336 53.5345 50.7412 47.0258 50.7412 40.5173 50.7412 36.1723 50.7412 36.1723 50.7412 36.1723 50.7412 30.0742 50.6426 30.0742 56.6345 30.0742 62.6265 30.0742 66.5423 30.0742 66.5423 30.0742 66.5423 29.1484 72.538 41.1325 72.538ZM47.1665 69.0734C46.078 69.0734 45.198 68.1934 45.198 67.1048 45.198 66.0158 46.078 65.1359 47.1665 65.1359 48.2555 65.1359 49.1355 66.0158 49.1355 67.1048 49.1355 68.1934 48.2555 69.0734 47.1665 69.0734Z" fill="url(#fill5)" transform="matrix(1 0 0 1.02222 785.616 186.786)"/></g></g></g></g></svg>