<svg width="228" height="62" xmlns="http://www.w3.org/2000/svg" xmlns:xlink="http://www.w3.org/1999/xlink" overflow="hidden"><defs><clipPath id="clip0"><rect x="279" y="276" width="228" height="62"/></clipPath><clipPath id="clip1"><rect x="280" y="277" width="226" height="60"/></clipPath><clipPath id="clip2"><rect x="280" y="277" width="226" height="60"/></clipPath><clipPath id="clip3"><rect x="280" y="277" width="226" height="60"/></clipPath></defs><g clip-path="url(#clip0)" transform="translate(-279 -276)"><g clip-path="url(#clip1)"><g clip-path="url(#clip2)"><g clip-path="url(#clip3)"><path d="M0 0 100 0 100 60 0 60Z" transform="matrix(2.26 0 0 1 280 277)"/><path d="M0 20 100 20 100 60 0 60Z" fill="#DD0000" transform="matrix(2.26 0 0 1 280 277)"/><path d="M0 40 100 40 100 60 0 60Z" fill="#FFCE00" transform="matrix(2.26 0 0 1 280 277)"/></g></g></g><path d="M332.881 308.323 332.881 311.687 335.998 311.687C336.529 311.687 336.963 311.526 337.299 311.206 337.635 310.886 337.803 310.485 337.803 310.005 337.803 309.525 337.635 309.124 337.299 308.804 336.963 308.484 336.529 308.323 335.998 308.323ZM448.881 302.569 448.881 305.921 451.998 305.921C452.529 305.921 452.963 305.761 453.299 305.441 453.635 305.12 453.803 304.72 453.803 304.239 453.803 303.759 453.635 303.36 453.299 303.044 452.963 302.728 452.529 302.569 451.998 302.569ZM332.881 302.089 332.881 304.96 335.4 304.96C335.877 304.96 336.256 304.829 336.537 304.568 336.818 304.306 336.959 303.958 336.959 303.525 336.959 303.091 336.818 302.743 336.537 302.482 336.256 302.22 335.877 302.089 335.4 302.089ZM444.322 298.48 452.244 298.48C454.018 298.48 455.481 299.032 456.633 300.138 457.785 301.243 458.361 302.612 458.361 304.245 458.361 304.917 458.262 305.544 458.063 306.126 457.863 306.708 457.623 307.181 457.342 307.544 457.061 307.907 456.779 308.216 456.498 308.47 456.217 308.724 455.983 308.898 455.795 308.991L455.479 309.167 458.959 315.284 454.166 315.284 451.283 309.999 448.881 309.999 448.881 315.284 444.322 315.284ZM428.322 298.48 441.283 298.48 441.283 302.323 432.881 302.323 432.881 304.96 439.361 304.96 439.361 308.569 432.881 308.569 432.881 311.441 441.518 311.441 441.518 315.284 428.322 315.284ZM408.322 298.48 412.283 298.48 419.479 307.843 419.479 298.48 424.037 298.48 424.037 315.284 420.1 315.284 412.881 305.921 412.881 315.284 408.322 315.284ZM389.322 298.48 393.283 298.48 400.479 307.843 400.479 298.48 405.037 298.48 405.037 315.284 401.1 315.284 393.881 305.921 393.881 315.284 389.322 315.284ZM381.322 298.48 385.881 298.48 385.881 315.284 381.322 315.284ZM345.322 298.48 358.283 298.48 358.283 302.323 349.881 302.323 349.881 304.96 356.361 304.96 356.361 308.569 349.881 308.569 349.881 311.441 358.518 311.441 358.518 315.284 345.322 315.284ZM328.322 298.48 335.881 298.48C337.608 298.48 338.998 298.921 340.053 299.804 341.108 300.687 341.635 301.726 341.635 302.921 341.635 303.382 341.561 303.821 341.412 304.239 341.264 304.657 341.084 304.991 340.873 305.241 340.662 305.491 340.453 305.708 340.246 305.892 340.039 306.075 339.858 306.206 339.701 306.284L339.479 306.401C339.557 306.433 339.664 306.478 339.801 306.536 339.938 306.595 340.178 306.732 340.522 306.946 340.865 307.161 341.17 307.405 341.436 307.679 341.701 307.952 341.941 308.327 342.156 308.804 342.371 309.28 342.479 309.8 342.479 310.362 342.479 311.675 341.906 312.823 340.762 313.808 339.617 314.792 338.15 315.284 336.361 315.284L328.322 315.284ZM369.725 297.999C370.623 297.999 371.479 298.116 372.291 298.351 373.104 298.585 373.774 298.866 374.301 299.194 374.828 299.523 375.289 299.851 375.684 300.179 376.078 300.507 376.361 300.788 376.533 301.023L376.803 301.362 374.037 304.245C373.99 304.183 373.928 304.103 373.85 304.005 373.772 303.907 373.592 303.735 373.311 303.489 373.029 303.243 372.736 303.025 372.432 302.833 372.127 302.642 371.727 302.47 371.231 302.318 370.734 302.165 370.233 302.089 369.725 302.089 368.35 302.089 367.205 302.544 366.291 303.454 365.377 304.364 364.92 305.507 364.92 306.882 364.92 308.257 365.377 309.401 366.291 310.316 367.205 311.23 368.35 311.687 369.725 311.687 370.303 311.687 370.83 311.599 371.307 311.423 371.783 311.247 372.119 311.062 372.315 310.866L372.596 310.609 372.596 308.804 369.959 308.804 369.959 305.921 377.166 305.921 377.166 312.401C377.104 312.495 376.998 312.618 376.85 312.771 376.701 312.923 376.393 313.193 375.924 313.579 375.455 313.966 374.951 314.308 374.412 314.605 373.873 314.901 373.182 315.169 372.338 315.407 371.494 315.646 370.623 315.765 369.725 315.765 367.115 315.765 364.902 314.892 363.086 313.146 361.27 311.4 360.361 309.312 360.361 306.882 360.361 304.452 361.27 302.364 363.086 300.618 364.902 298.872 367.115 297.999 369.725 297.999Z" stroke="#000000" stroke-linejoin="round" stroke-miterlimit="10" fill="#FFFFFF" fill-rule="evenodd"/><text fill="#000000" fill-opacity="0" font-family="Arial,Arial_MSFontService,sans-serif" font-size="17.7656" x="328.322" y="313.544">BEGINNER</text></g></svg>