<svg width="228" height="61" xmlns="http://www.w3.org/2000/svg" xmlns:xlink="http://www.w3.org/1999/xlink" overflow="hidden"><defs><clipPath id="clip0"><rect x="279" y="211" width="228" height="61"/></clipPath><clipPath id="clip1"><rect x="280" y="211" width="226" height="61"/></clipPath><clipPath id="clip2"><rect x="280" y="211" width="226" height="61"/></clipPath><clipPath id="clip3"><rect x="280" y="211" width="226" height="61"/></clipPath><clipPath id="clip4"><rect x="280" y="211" width="226" height="61"/></clipPath><clipPath id="clip5"><path d="M393 241.5 506 241.5 506 272ZM393 241.5 393 272 280 272ZM393 241.5 280 241.5 280 211ZM393 241.5 393 211 506 211Z"/></clipPath></defs><g clip-path="url(#clip0)" transform="translate(-279 -211)"><g clip-path="url(#clip1)"><g clip-path="url(#clip2)"><g clip-path="url(#clip3)"><g clip-path="url(#clip4)"><path d="M0 0 0 61 122 61 122 0Z" fill="#012169" transform="matrix(1.85246 0 0 1 280 211)"/><path d="M0 0 122 61M122 0 0 61" stroke="#FFFFFF" stroke-width="12.2" transform="matrix(1.85246 0 0 1 280 211)"/><g clip-path="url(#clip5)"><path d="M0 0 122 61M122 0 0 61" stroke="#C8102E" stroke-width="8.13333" transform="matrix(1.85246 0 0 1 280 211)"/></g><path d="M61 0 61 61M0 30.5 122 30.5" stroke="#FFFFFF" stroke-width="20.3333" transform="matrix(1.85246 0 0 1 280 211)"/><path d="M61 0 61 61M0 30.5 122 30.5" stroke="#C8102E" stroke-width="12.2" transform="matrix(1.85246 0 0 1 280 211)"/></g></g></g></g><path d="M384.367 237.711 382.808 242.633 385.925 242.633ZM330.367 237.711 328.808 242.633 331.925 242.633ZM452.964 237.113 452.964 245.75 454.886 245.75C456.058 245.75 457.07 245.338 457.921 244.514 458.773 243.689 459.199 242.66 459.199 241.426 459.199 240.16 458.796 239.125 457.992 238.32 457.187 237.516 456.152 237.113 454.886 237.113ZM345.964 237.113 345.964 245.75 347.886 245.75C349.058 245.75 350.07 245.338 350.921 244.514 351.773 243.689 352.199 242.66 352.199 241.426 352.199 240.16 351.796 239.125 350.992 238.32 350.187 237.516 349.152 237.113 347.886 237.113ZM448.406 233.023 454.886 233.023C457.449 233.023 459.57 233.832 461.249 235.449 462.929 237.066 463.769 239.059 463.769 241.426 463.769 243.793 462.927 245.785 461.244 247.402 459.56 249.02 457.441 249.828 454.886 249.828L448.406 249.828ZM432.406 233.023 445.367 233.023 445.367 236.867 436.964 236.867 436.964 239.504 443.445 239.504 443.445 243.113 436.964 243.113 436.964 245.984 445.601 245.984 445.601 249.828 432.406 249.828ZM394.406 233.023 398.367 233.023 405.562 242.387 405.562 233.023 410.121 233.023 410.121 249.828 406.183 249.828 398.964 240.465 398.964 249.828 394.406 249.828ZM381.847 233.023 386.886 233.023 393.249 249.828 388.328 249.828 387.121 246.23 381.601 246.23 380.406 249.828 375.484 249.828ZM357.718 233.023 362.64 233.023 366.249 244.543 369.847 233.023 374.769 233.023 368.769 249.828 363.718 249.828ZM341.406 233.023 347.886 233.023C350.449 233.023 352.57 233.832 354.249 235.449 355.929 237.066 356.769 239.059 356.769 241.426 356.769 243.793 355.927 245.785 354.244 247.402 352.56 249.02 350.441 249.828 347.886 249.828L341.406 249.828ZM327.847 233.023 332.886 233.023 339.249 249.828 334.328 249.828 333.121 246.23 327.601 246.23 326.406 249.828 321.484 249.828ZM422.808 232.543C423.706 232.543 424.562 232.66 425.374 232.895 426.187 233.129 426.857 233.41 427.384 233.738 427.912 234.066 428.372 234.395 428.767 234.723 429.162 235.051 429.445 235.332 429.617 235.566L429.886 235.906 427.121 238.789C427.074 238.727 427.011 238.646 426.933 238.549 426.855 238.451 426.675 238.279 426.394 238.033 426.113 237.787 425.82 237.568 425.515 237.377 425.21 237.186 424.81 237.014 424.314 236.861 423.818 236.709 423.316 236.633 422.808 236.633 421.433 236.633 420.288 237.088 419.374 237.998 418.46 238.908 418.003 240.051 418.003 241.426 418.003 242.801 418.46 243.945 419.374 244.859 420.288 245.773 421.433 246.23 422.808 246.23 423.66 246.23 424.464 246.051 425.222 245.691 425.98 245.332 426.527 244.969 426.863 244.602L427.367 244.063 430.003 246.945C429.941 247.039 429.849 247.162 429.728 247.314 429.607 247.467 429.326 247.736 428.884 248.123 428.443 248.51 427.966 248.852 427.454 249.148 426.943 249.445 426.267 249.713 425.427 249.951 424.587 250.189 423.714 250.309 422.808 250.309 420.199 250.309 417.986 249.436 416.169 247.689 414.353 245.943 413.445 243.855 413.445 241.426 413.445 238.996 414.353 236.908 416.169 235.162 417.986 233.416 420.199 232.543 422.808 232.543Z" stroke="#000000" stroke-linejoin="round" stroke-miterlimit="10" fill="#FFFFFF" fill-rule="evenodd"/><text fill="#000000" fill-opacity="0" font-family="Arial,Arial_MSFontService,sans-serif" font-size="17.7656" x="321.484" y="248.088">ADVANCED</text></g></svg>