<svg width="228" height="61" xmlns="http://www.w3.org/2000/svg" xmlns:xlink="http://www.w3.org/1999/xlink" overflow="hidden"><defs><clipPath id="clip0"><rect x="279" y="342" width="228" height="61"/></clipPath><clipPath id="clip1"><rect x="280" y="342" width="226" height="61"/></clipPath><clipPath id="clip2"><rect x="280" y="342" width="226" height="61"/></clipPath><clipPath id="clip3"><rect x="280" y="342" width="226" height="61"/></clipPath></defs><g clip-path="url(#clip0)" transform="translate(-279 -342)"><g clip-path="url(#clip1)"><g clip-path="url(#clip2)"><g clip-path="url(#clip3)"><path d="M0 0 91.5 0 91.5 61 0 61Z" stroke="#000000" stroke-width="0.101674" fill="#ED2939" transform="matrix(2.46995 0 0 1 280 342)"/><path d="M0 0 61 0 61 61 0 61Z" stroke="#000000" stroke-width="0.101674" fill="#FFFFFF" transform="matrix(2.46995 0 0 1 280 342)"/><path d="M0 0 30.5 0 30.5 61 0 61Z" stroke="#000000" stroke-width="0.101674" fill="#002395" transform="matrix(2.46995 0 0 1 280 342)"/></g></g></g><path d="M332.881 373.78 332.881 377.143 335.998 377.143C336.529 377.143 336.963 376.983 337.299 376.662 337.635 376.342 337.803 375.942 337.803 375.461 337.803 374.981 337.635 374.58 337.299 374.26 336.963 373.94 336.529 373.78 335.998 373.78ZM448.881 368.026 448.881 371.377 451.998 371.377C452.529 371.377 452.963 371.217 453.299 370.897 453.635 370.576 453.803 370.176 453.803 369.696 453.803 369.215 453.635 368.817 453.299 368.5 452.963 368.184 452.529 368.026 451.998 368.026ZM332.881 367.545 332.881 370.416 335.4 370.416C335.877 370.416 336.256 370.285 336.537 370.024 336.818 369.762 336.959 369.414 336.959 368.981 336.959 368.547 336.818 368.199 336.537 367.938 336.256 367.676 335.877 367.545 335.4 367.545ZM444.322 363.936 452.244 363.936C454.018 363.936 455.481 364.489 456.633 365.594 457.785 366.699 458.361 368.069 458.361 369.701 458.361 370.373 458.262 371 458.063 371.582 457.863 372.164 457.623 372.637 457.342 373 457.061 373.364 456.779 373.672 456.498 373.926 456.217 374.18 455.983 374.354 455.795 374.448L455.479 374.623 458.959 380.74 454.166 380.74 451.283 375.455 448.881 375.455 448.881 380.74 444.322 380.74ZM428.322 363.936 441.283 363.936 441.283 367.78 432.881 367.78 432.881 370.416 439.361 370.416 439.361 374.026 432.881 374.026 432.881 376.897 441.518 376.897 441.518 380.74 428.322 380.74ZM408.322 363.936 412.283 363.936 419.479 373.299 419.479 363.936 424.037 363.936 424.037 380.74 420.1 380.74 412.881 371.377 412.881 380.74 408.322 380.74ZM389.322 363.936 393.283 363.936 400.479 373.299 400.479 363.936 405.037 363.936 405.037 380.74 401.1 380.74 393.881 371.377 393.881 380.74 389.322 380.74ZM381.322 363.936 385.881 363.936 385.881 380.74 381.322 380.74ZM345.322 363.936 358.283 363.936 358.283 367.78 349.881 367.78 349.881 370.416 356.361 370.416 356.361 374.026 349.881 374.026 349.881 376.897 358.518 376.897 358.518 380.74 345.322 380.74ZM328.322 363.936 335.881 363.936C337.608 363.936 338.998 364.377 340.053 365.26 341.108 366.143 341.635 367.182 341.635 368.377 341.635 368.838 341.561 369.278 341.412 369.696 341.264 370.114 341.084 370.448 340.873 370.698 340.662 370.948 340.453 371.164 340.246 371.348 340.039 371.531 339.858 371.662 339.701 371.74L339.479 371.858C339.557 371.889 339.664 371.934 339.801 371.992 339.938 372.051 340.178 372.188 340.522 372.403 340.865 372.617 341.17 372.862 341.436 373.135 341.701 373.408 341.941 373.783 342.156 374.26 342.371 374.737 342.479 375.256 342.479 375.819 342.479 377.131 341.906 378.28 340.762 379.264 339.617 380.248 338.15 380.74 336.361 380.74L328.322 380.74ZM369.725 363.455C370.623 363.455 371.479 363.573 372.291 363.807 373.104 364.041 373.774 364.323 374.301 364.651 374.828 364.979 375.289 365.307 375.684 365.635 376.078 365.963 376.361 366.244 376.533 366.479L376.803 366.819 374.037 369.701C373.99 369.639 373.928 369.559 373.85 369.461 373.772 369.364 373.592 369.192 373.311 368.946 373.029 368.699 372.736 368.481 372.432 368.289 372.127 368.098 371.727 367.926 371.231 367.774 370.734 367.621 370.233 367.545 369.725 367.545 368.35 367.545 367.205 368 366.291 368.91 365.377 369.821 364.92 370.963 364.92 372.338 364.92 373.713 365.377 374.858 366.291 375.772 367.205 376.686 368.35 377.143 369.725 377.143 370.303 377.143 370.83 377.055 371.307 376.879 371.783 376.703 372.119 376.518 372.315 376.323L372.596 376.065 372.596 374.26 369.959 374.26 369.959 371.377 377.166 371.377 377.166 377.858C377.104 377.951 376.998 378.074 376.85 378.227 376.701 378.379 376.393 378.649 375.924 379.035 375.455 379.422 374.951 379.764 374.412 380.061 373.873 380.358 373.182 380.625 372.338 380.864 371.494 381.102 370.623 381.221 369.725 381.221 367.115 381.221 364.902 380.348 363.086 378.602 361.27 376.856 360.361 374.768 360.361 372.338 360.361 369.908 361.27 367.821 363.086 366.074 364.902 364.328 367.115 363.455 369.725 363.455Z" stroke="#000000" stroke-linejoin="round" stroke-miterlimit="10" fill="#FFFFFF" fill-rule="evenodd"/><text fill="#000000" fill-opacity="0" font-family="Arial,Arial_MSFontService,sans-serif" font-size="17.7656" x="328.322" y="379">BEGINNER</text></g></svg>