<svg width="228" height="62" xmlns="http://www.w3.org/2000/svg" xmlns:xlink="http://www.w3.org/1999/xlink" overflow="hidden"><defs><clipPath id="clip0"><rect x="280" y="145" width="228" height="62"/></clipPath><clipPath id="clip1"><rect x="280" y="145" width="227" height="61"/></clipPath><clipPath id="clip2"><rect x="280" y="145" width="227" height="61"/></clipPath><clipPath id="clip3"><rect x="280" y="145" width="227" height="61"/></clipPath></defs><g clip-path="url(#clip0)" transform="translate(-280 -145)"><g clip-path="url(#clip1)"><g clip-path="url(#clip2)"><g clip-path="url(#clip3)"><path d="M0 0 91.5 0 91.5 30.5 0 30.5Z" stroke="#000000" stroke-width="0.269912" fill="#FFFFFF" transform="matrix(2.48087 0 0 1 280 145)"/><path d="M0 30.5 91.5 30.5 91.5 61 0 61Z" stroke="#000000" stroke-width="0.269912" fill="#D52B1E" transform="matrix(2.48087 0 0 1 280 145)"/><path d="M0 20.3333 91.5 20.3333 91.5 40.6667 0 40.6667Z" stroke="#000000" stroke-width="0.269912" fill="#0039A6" transform="matrix(2.48087 0 0 1 280 145)"/></g></g></g><path d="M375.391 171.938 373.832 176.86 376.949 176.86ZM426.43 167.251 439.391 167.251 439.391 171.095 430.988 171.095 430.988 173.731 437.469 173.731 437.469 177.341 430.988 177.341 430.988 180.212 439.625 180.212 439.625 184.056 426.43 184.056ZM407.742 167.251 412.664 167.251 416.273 178.77 419.871 167.251 424.793 167.251 418.793 184.056 413.742 184.056ZM400.43 167.251 404.988 167.251 404.988 184.056 400.43 184.056ZM383.988 167.251 397.91 167.251 397.91 171.341 393.223 171.341 393.223 184.056 388.664 184.056 388.664 171.341 383.988 171.341ZM372.871 167.251 377.91 167.251 384.273 184.056 379.352 184.056 378.145 180.458 372.625 180.458 371.43 184.056 366.508 184.056ZM348.43 167.251 352.391 167.251 359.586 176.614 359.586 167.251 364.145 167.251 364.145 184.056 360.207 184.056 352.988 174.692 352.988 184.056 348.43 184.056Z" stroke="#000000" stroke-linejoin="round" stroke-miterlimit="10" fill="#FFFFFF" fill-rule="evenodd"/><text fill="#000000" fill-opacity="0" font-family="Arial,Arial_MSFontService,sans-serif" font-size="16.8047" x="348.43" y="181.955">NATIVE</text></g></svg>