<svg width="229" height="62" xmlns="http://www.w3.org/2000/svg" xmlns:xlink="http://www.w3.org/1999/xlink" overflow="hidden"><defs><clipPath id="clip0"><rect x="554" y="141" width="229" height="62"/></clipPath><clipPath id="clip1"><rect x="563" y="155" width="45" height="34"/></clipPath><clipPath id="clip2"><rect x="563" y="155" width="45" height="34"/></clipPath><clipPath id="clip3"><rect x="563" y="155" width="45" height="34"/></clipPath></defs><g clip-path="url(#clip0)" transform="translate(-554 -141)"><rect x="555" y="142" width="227" height="60" fill="#FBFBFB"/><text font-family="TT Norms,TT Norms_MSFontService,sans-serif" font-weight="800" font-size="24" transform="translate(617.582 180)">E-MAIL</text><g clip-path="url(#clip1)"><g clip-path="url(#clip2)"><g clip-path="url(#clip3)"><path d="M29.6591 55.2273 36.8182 55.2273 36.8182 37.8409 26.5909 30.1705 26.5909 52.1591C26.5909 53.8568 27.9665 55.2273 29.6591 55.2273" fill="#4285F4" transform="matrix(1 0 0 1.00741 536.409 133.364)"/><path d="M61.3636 55.2273 68.5227 55.2273C70.2205 55.2273 71.5909 53.8517 71.5909 52.1591L71.5909 30.1705 61.3636 37.8409" fill="#34A853" transform="matrix(1 0 0 1.00741 536.409 133.364)"/><path d="M61.3636 24.5455 61.3636 37.8409 71.5909 30.1705 71.5909 26.0795C71.5909 22.2852 67.2597 20.1222 64.2273 22.3977" fill="#FBBC04" transform="matrix(1 0 0 1.00741 536.409 133.364)"/><path d="M36.8182 37.8409 36.8182 24.5455 49.0909 33.75 61.3636 24.5455 61.3636 37.8409 49.0909 47.0455" fill="#EA4335" transform="matrix(1 0 0 1.00741 536.409 133.364)"/><path d="M26.5909 26.0795 26.5909 30.1705 36.8182 37.8409 36.8182 24.5455 33.9545 22.3977C30.917 20.1222 26.5909 22.2852 26.5909 26.0795" fill="#C5221F" transform="matrix(1 0 0 1.00741 536.409 133.364)"/></g></g></g></g></svg>