<svg width="231" height="61" xmlns="http://www.w3.org/2000/svg" xmlns:xlink="http://www.w3.org/1999/xlink" overflow="hidden"><defs><clipPath id="clip0"><rect x="554" y="397" width="231" height="61"/></clipPath><clipPath id="clip1"><rect x="563" y="405" width="45" height="45"/></clipPath><clipPath id="clip2"><rect x="563" y="405" width="45" height="45"/></clipPath><clipPath id="clip3"><rect x="563" y="405" width="45" height="45"/></clipPath><radialGradient cx="158.429" cy="578.088" r="65" gradientUnits="userSpaceOnUse" spreadMethod="pad" id="fill4" gradientTransform="matrix(0 -0.675675 0.628602 0 211.728 560.115)"><stop offset="0" stop-color="#FFDD55"/><stop offset="0.1" stop-color="#FFDD55"/><stop offset="0.5" stop-color="#FF543E"/><stop offset="1" stop-color="#C837AB"/></radialGradient><radialGradient cx="147.694" cy="473.455" r="65" gradientUnits="userSpaceOnUse" spreadMethod="pad" id="fill5" gradientTransform="matrix(0.0592977 0.296155 -1.22107 0.244493 1125.28 249.036)"><stop offset="0" stop-color="#3771C8"/><stop offset="0.128" stop-color="#3771C8"/><stop offset="1" stop-color="#6600FF" stop-opacity="0"/></radialGradient></defs><g clip-path="url(#clip0)" transform="translate(-554 -397)"><rect x="555" y="397" width="227" height="61" fill="#FBFBFB"/><text font-family="TT Norms,TT Norms_MSFontService,sans-serif" font-weight="800" font-size="24" transform="translate(617.582 436)">INSTAGRAM</text><g clip-path="url(#clip1)"><g clip-path="url(#clip2)"><g clip-path="url(#clip3)"><path d="M585.512 405.341C576.259 405.341 573.552 405.35 573.026 405.394 571.128 405.552 569.946 405.851 568.659 406.492 567.667 406.984 566.884 407.555 566.112 408.356 564.706 409.816 563.854 411.612 563.545 413.746 563.395 414.783 563.352 414.994 563.343 420.288 563.339 422.052 563.343 424.375 563.343 427.489 563.343 436.735 563.353 439.438 563.397 439.963 563.551 441.811 563.84 442.974 564.454 444.245 565.627 446.679 567.867 448.506 570.505 449.188 571.419 449.424 572.428 449.553 573.723 449.614 574.272 449.638 579.867 449.655 585.464 449.655 591.062 449.655 596.66 449.649 597.195 449.621 598.695 449.551 599.566 449.434 600.529 449.185 603.185 448.5 605.384 446.7 606.58 444.231 607.182 442.991 607.487 441.784 607.625 440.033 607.655 439.651 607.668 433.563 607.668 427.484 607.668 421.403 607.654 415.327 607.624 414.945 607.484 413.165 607.179 411.969 606.558 410.704 606.048 409.669 605.482 408.896 604.661 408.105 603.195 406.705 601.401 405.852 599.265 405.544 598.229 405.394 598.023 405.35 592.725 405.341L585.512 405.341Z" fill="url(#fill4)"/><path d="M585.512 405.341C576.259 405.341 573.552 405.35 573.026 405.394 571.128 405.552 569.946 405.851 568.659 406.492 567.667 406.984 566.884 407.555 566.112 408.356 564.706 409.816 563.854 411.612 563.545 413.746 563.395 414.783 563.352 414.994 563.343 420.288 563.339 422.052 563.343 424.375 563.343 427.489 563.343 436.735 563.353 439.438 563.397 439.963 563.551 441.811 563.84 442.974 564.454 444.245 565.627 446.679 567.867 448.506 570.505 449.188 571.419 449.424 572.428 449.553 573.723 449.614 574.272 449.638 579.867 449.655 585.464 449.655 591.062 449.655 596.66 449.649 597.195 449.621 598.695 449.551 599.566 449.434 600.529 449.185 603.185 448.5 605.384 446.7 606.58 444.231 607.182 442.991 607.487 441.784 607.625 440.033 607.655 439.651 607.668 433.563 607.668 427.484 607.668 421.403 607.654 415.327 607.624 414.945 607.484 413.165 607.179 411.969 606.558 410.704 606.048 409.669 605.482 408.896 604.661 408.105 603.195 406.705 601.401 405.852 599.265 405.544 598.229 405.394 598.023 405.35 592.725 405.341L585.512 405.341Z" fill="url(#fill5)"/><path d="M585.501 411.136C581.057 411.136 580.5 411.156 578.754 411.235 577.012 411.315 575.823 411.591 574.782 411.995 573.706 412.413 572.793 412.973 571.884 413.882 570.974 414.792 570.414 415.705 569.995 416.781 569.589 417.822 569.313 419.011 569.235 420.752 569.157 422.498 569.136 423.056 569.136 427.5 569.136 431.944 569.156 432.5 569.235 434.246 569.315 435.988 569.591 437.177 569.995 438.217 570.414 439.293 570.973 440.206 571.883 441.116 572.792 442.026 573.705 442.587 574.78 443.005 575.822 443.409 577.011 443.685 578.753 443.765 580.498 443.844 581.056 443.864 585.499 443.864 589.944 443.864 590.5 443.844 592.245 443.765 593.987 443.685 595.178 443.409 596.219 443.005 597.295 442.587 598.206 442.026 599.116 441.116 600.026 440.206 600.585 439.293 601.004 438.217 601.406 437.177 601.683 435.987 601.764 434.246 601.843 432.5 601.863 431.944 601.863 427.5 601.863 423.056 601.843 422.498 601.764 420.753 601.683 419.011 601.406 417.822 601.004 416.781 600.585 415.705 600.026 414.792 599.116 413.882 598.205 412.972 597.295 412.413 596.218 411.995 595.175 411.591 593.985 411.315 592.243 411.235 590.497 411.156 589.942 411.136 585.496 411.136ZM584.033 414.085C584.469 414.085 584.955 414.085 585.501 414.085 589.87 414.085 590.388 414.101 592.114 414.179 593.709 414.252 594.575 414.519 595.152 414.743 595.915 415.039 596.46 415.394 597.032 415.967 597.605 416.539 597.96 417.085 598.257 417.849 598.481 418.425 598.748 419.291 598.82 420.886 598.899 422.611 598.916 423.129 598.916 427.496 598.916 431.863 598.899 432.381 598.82 434.106 598.747 435.702 598.481 436.568 598.257 437.144 597.96 437.908 597.605 438.451 597.032 439.024 596.46 439.596 595.916 439.951 595.152 440.248 594.576 440.473 593.709 440.739 592.114 440.811 590.389 440.89 589.87 440.907 585.501 440.907 581.132 440.907 580.614 440.89 578.889 440.811 577.294 440.738 576.428 440.471 575.851 440.247 575.087 439.951 574.542 439.596 573.969 439.023 573.396 438.451 573.042 437.907 572.744 437.143 572.52 436.566 572.253 435.701 572.181 434.105 572.102 432.38 572.087 431.862 572.087 427.492 572.087 423.122 572.102 422.607 572.181 420.882 572.254 419.286 572.52 418.421 572.744 417.844 573.041 417.08 573.396 416.535 573.969 415.962 574.542 415.389 575.087 415.035 575.851 414.737 576.427 414.512 577.294 414.246 578.889 414.173 580.399 414.105 580.984 414.085 584.033 414.081ZM594.236 416.802C593.152 416.802 592.273 417.681 592.273 418.765 592.273 419.849 593.152 420.729 594.236 420.729 595.32 420.729 596.2 419.849 596.2 418.765 596.2 417.681 595.32 416.802 594.236 416.802ZM585.501 419.097C580.861 419.097 577.098 422.859 577.098 427.5 577.098 432.141 580.861 435.902 585.501 435.902 590.142 435.902 593.903 432.141 593.903 427.5 593.903 422.859 590.142 419.097 585.501 419.097ZM585.501 422.045C588.514 422.045 590.956 424.487 590.956 427.5 590.956 430.512 588.514 432.955 585.501 432.955 582.489 432.955 580.047 430.512 580.047 427.5 580.047 424.487 582.489 422.045 585.501 422.045Z" fill="#FFFFFF"/></g></g></g></g></svg>