<svg width="229" height="62" xmlns="http://www.w3.org/2000/svg" xmlns:xlink="http://www.w3.org/1999/xlink" overflow="hidden"><defs><clipPath id="clip0"><rect x="554" y="268" width="229" height="62"/></clipPath><clipPath id="clip1"><rect x="565" y="278" width="42" height="43"/></clipPath><clipPath id="clip2"><rect x="565" y="278" width="42" height="43"/></clipPath><clipPath id="clip3"><rect x="565" y="278" width="42" height="43"/></clipPath><linearGradient x1="31.5105" y1="10.5105" x2="14.0175" y2="28.0035" gradientUnits="userSpaceOnUse" spreadMethod="pad" id="fill4"><stop offset="0" stop-color="#37AEE2"/><stop offset="1" stop-color="#1E96C8"/></linearGradient><linearGradient x1="23.1918" y1="21.3714" x2="28.4353" y2="27.623" gradientUnits="userSpaceOnUse" spreadMethod="pad" id="fill5"><stop offset="0" stop-color="#EFF7FC"/><stop offset="1" stop-color="#FFFFFF"/></linearGradient></defs><g clip-path="url(#clip0)" transform="translate(-554 -268)"><rect x="555" y="269" width="227" height="60" fill="#FBFBFB"/><text font-family="TT Norms,TT Norms_MSFontService,sans-serif" font-weight="800" font-size="24" transform="translate(617.582 307)">TELEGRAM</text><g clip-path="url(#clip1)"><g clip-path="url(#clip2)"><g clip-path="url(#clip3)"><path d="M42 21C42 32.598 32.598 42 21 42 9.40202 42-2.4869e-15 32.598-2.4869e-15 21-7.4607e-15 9.40202 9.40202-4.9738e-15 21-4.9738e-15 32.598-9.9476e-15 42 9.40202 42 21Z" fill="url(#fill4)" transform="matrix(1 0 0 1.02381 565 278)"/><path d="M17.15 30.625C16.4696 30.625 16.5853 30.3681 16.3506 29.7202L14.35 23.1362 29.75 14" fill="#C8DAEA" transform="matrix(1 0 0 1.02381 565 278)"/><path d="M17.15 30.625C17.675 30.625 17.9069 30.3849 18.2 30.1L21 27.3773 17.5073 25.2712" fill="#A9C9DD" transform="matrix(1 0 0 1.02381 565 278)"/><path d="M17.507 25.2717 25.97 31.5243C26.9358 32.0572 27.6327 31.7812 27.8733 30.6278L31.3182 14.3943C31.6708 12.9803 30.7792 12.3387 29.8552 12.7582L9.62693 20.5581C8.24617 21.112 8.2544 21.8823 9.37528 22.2255L14.5663 23.8458 26.5841 16.264C27.1514 15.9199 27.6722 16.1047 27.2449 16.4841" fill="url(#fill5)" transform="matrix(1 0 0 1.02381 565 278)"/></g></g></g></g></svg>