<svg width="229" height="62" xmlns="http://www.w3.org/2000/svg" xmlns:xlink="http://www.w3.org/1999/xlink" overflow="hidden"><defs><clipPath id="clip0"><rect x="554" y="332" width="229" height="62"/></clipPath><clipPath id="clip1"><rect x="563" y="340" width="45" height="45"/></clipPath><clipPath id="clip2"><rect x="563" y="340" width="45" height="45"/></clipPath><clipPath id="clip3"><rect x="563" y="340" width="45" height="45"/></clipPath></defs><g clip-path="url(#clip0)" transform="translate(-554 -332)"><rect x="555" y="333" width="227" height="60" fill="#FBFBFB"/><text font-family="TT Norms,TT Norms_MSFontService,sans-serif" font-weight="800" font-size="24" transform="translate(617.582 371)">VK</text><g clip-path="url(#clip1)"><g clip-path="url(#clip2)"><g clip-path="url(#clip3)"><path d="M578.6 340 592.4 340C605 340 608 343 608 355.6L608 369.4C608 382 605 385 592.4 385L578.6 385C566 385 563 382 563 369.4L563 355.6C563 343 566 340 578.6 340Z" fill="#2787F5" fill-rule="evenodd"/><path d="M599.852 355.503C600.06 354.808 599.852 354.297 598.859 354.297L595.578 354.297C594.744 354.297 594.359 354.738 594.151 355.225 594.151 355.225 592.482 359.292 590.118 361.934 589.353 362.699 589.006 362.942 588.589 362.942 588.38 362.942 588.078 362.699 588.078 362.004L588.078 355.503C588.078 354.669 587.836 354.297 587.141 354.297L581.984 354.297C581.463 354.297 581.149 354.684 581.149 355.051 581.149 355.842 582.331 356.024 582.453 358.249L582.453 363.081C582.453 364.141 582.262 364.333 581.845 364.333 580.732 364.333 578.027 360.247 576.422 355.573 576.107 354.664 575.792 354.297 574.953 354.297L571.672 354.297C570.734 354.297 570.547 354.738 570.547 355.225 570.547 356.094 571.659 360.405 575.727 366.106 578.438 369.999 582.258 372.109 585.734 372.109 587.82 372.109 588.078 371.641 588.078 370.833L588.078 367.891C588.078 366.953 588.276 366.766 588.936 366.766 589.423 366.766 590.257 367.009 592.204 368.887 594.429 371.111 594.796 372.109 596.047 372.109L599.328 372.109C600.266 372.109 600.734 371.641 600.464 370.716 600.168 369.794 599.106 368.456 597.696 366.87 596.932 365.966 595.784 364.993 595.437 364.506 594.95 363.881 595.089 363.603 595.437 363.046 595.437 363.046 599.435 357.415 599.852 355.503Z" fill="#FFFFFF" fill-rule="evenodd"/></g></g></g></g></svg>